<svg width="759" height="255" viewBox="0 0 759 255" fill="none" xmlns="http://www.w3.org/2000/svg">
<path d="M759 255H0V0H759V255ZM385.144 95.2236V136.312C385.144 141.688 386.328 146.488 388.696 150.712C391.128 154.872 394.456 158.136 398.68 160.504C402.968 162.872 407.896 164.056 413.464 164.056C419.032 164.056 423.928 162.872 428.152 160.504C432.376 158.136 435.672 154.872 438.04 150.712C440.408 146.552 441.592 141.784 441.592 136.408V95.2236H426.424V137.272C426.424 139.96 425.848 142.296 424.696 144.28C423.608 146.2 422.104 147.704 420.184 148.792C418.264 149.816 416.024 150.328 413.464 150.328C411.032 150.328 408.792 149.816 406.744 148.792C404.76 147.704 403.192 146.168 402.04 144.184C400.888 142.2 400.312 139.864 400.312 137.176V95.2236H385.144ZM142.398 95.2236L115.519 163H131.166L135.675 150.712H162.241L166.687 163H182.622L156.03 95.2236H142.398ZM189.794 95.2236V163H218.689C223.489 163 227.586 162.136 230.978 160.408C234.433 158.68 237.058 156.344 238.85 153.4C240.706 150.392 241.634 147.032 241.634 143.32C241.634 138.456 240.066 134.36 236.93 131.032C235.341 129.311 233.4 127.89 231.108 126.768C232.742 125.859 234.139 124.785 235.298 123.544C237.986 120.664 239.33 117.144 239.33 112.984C239.33 109.72 238.53 106.744 236.93 104.056C235.33 101.368 232.994 99.224 229.922 97.624C226.914 96.0241 223.234 95.2237 218.882 95.2236H189.794ZM251.294 95.2236V163H266.365V134.68H293.246V163H308.414V95.2236H293.246V121.624H266.365V95.2236H251.294ZM316.139 95.2236L340.427 134.78V163H355.499V134.182L379.595 95.2236H362.507L348.059 119.972L333.61 95.2236H316.139ZM453.606 95.2236V163H480.966C486.022 163 490.694 162.168 494.982 160.504C499.334 158.84 503.111 156.504 506.311 153.496C509.51 150.488 511.974 146.904 513.702 142.744C515.494 138.584 516.39 134.04 516.39 129.112C516.39 124.12 515.494 119.576 513.702 115.48C511.974 111.32 509.478 107.736 506.214 104.728C503.014 101.656 499.238 99.3197 494.886 97.7197C490.598 96.0559 485.894 95.2237 480.774 95.2236H453.606ZM547.773 95.2236L520.894 163H536.541L541.05 150.712H567.616L572.062 163H587.997L561.405 95.2236H547.773ZM581.264 95.2236L605.552 134.78V163H620.624V134.182L644.72 95.2236H627.632L613.184 119.972L598.735 95.2236H581.264ZM217.25 133.432C219.234 133.432 220.897 133.816 222.241 134.584C223.649 135.352 224.738 136.408 225.506 137.752C226.274 139.096 226.657 140.632 226.657 142.36C226.657 144.856 225.826 146.968 224.162 148.696C222.498 150.424 220.194 151.288 217.25 151.288H204.674V133.432H217.25ZM480.582 108.376C484.678 108.376 488.23 109.208 491.238 110.872C494.31 112.536 496.678 114.904 498.342 117.976C500.07 121.047 500.935 124.728 500.935 129.016C500.935 133.304 500.102 137.016 498.438 140.152C496.774 143.288 494.406 145.688 491.334 147.352C488.262 148.952 484.678 149.752 480.582 149.752H468.678V108.376H480.582ZM563.17 138.424H545.558L554.425 114.253L563.17 138.424ZM157.795 138.424H140.183L149.05 114.253L157.795 138.424ZM216.002 106.936C218.498 106.936 220.514 107.576 222.05 108.856C223.586 110.072 224.353 111.928 224.354 114.424C224.354 116.984 223.586 118.904 222.05 120.184C220.514 121.4 218.498 122.008 216.002 122.008H204.674V106.936H216.002Z" fill="#0B0B0B"/>
</svg>
